<?xml version="1.0" standalone="no"?>
<!DOCTYPE svg PUBLIC "-//W3C//DTD SVG 20010904//EN"
 "http://www.w3.org/TR/2001/REC-SVG-20010904/DTD/svg10.dtd">
<svg version="1.0" xmlns="http://www.w3.org/2000/svg"
 width="3667.000000pt" height="1008.000000pt" viewBox="0 0 3667.000000 1008.000000"
 preserveAspectRatio="xMidYMid meet">

<g transform="translate(0.000000,1008.000000) scale(0.100000,-0.100000)"
fill="#000000" stroke="none">
<path d="M3234 7562 c-133 -47 -230 -162 -254 -303 -8 -45 -10 -696 -8 -2219
l3 -2155 23 -58 c33 -82 123 -176 204 -213 l63 -29 245 0 245 0 60 29 c77 38
153 114 191 191 l29 60 6 850 c6 912 5 884 58 1039 29 81 101 214 155 284 136
177 309 264 491 248 234 -21 354 -119 410 -335 45 -175 48 -232 54 -1181 l6
-905 27 -58 c35 -74 121 -160 195 -195 58 -27 58 -27 298 -27 l240 0 62 29
c76 35 153 113 191 193 l27 58 3 895 c3 957 -1 1109 -43 1355 -102 598 -359
889 -864 976 -144 24 -386 27 -513 4 -266 -46 -483 -162 -689 -367 -54 -54
-100 -98 -103 -98 -3 0 -7 375 -8 833 l-3 832 -32 66 c-39 80 -111 150 -191
187 -56 27 -60 27 -292 29 -204 3 -242 0 -286 -15z"/>
<path d="M7560 7571 c-100 -32 -198 -116 -247 -211 -27 -53 -28 -60 -28 -210
0 -149 1 -157 28 -211 35 -72 114 -151 186 -186 l56 -28 285 0 285 0 58 28
c74 37 147 110 184 184 27 56 28 63 28 213 0 139 -2 160 -22 203 -31 66 -124
161 -192 194 l-56 28 -270 2 c-148 1 -281 -2 -295 -6z"/>
<path d="M23574 7562 c-133 -47 -230 -162 -254 -303 -8 -45 -10 -696 -8 -2219
l3 -2155 23 -58 c33 -82 123 -176 204 -213 l63 -29 245 0 245 0 60 29 c77 38
153 114 191 191 l29 60 6 850 c6 912 5 884 58 1039 29 81 101 214 155 284 136
177 309 264 491 248 234 -21 354 -119 410 -335 45 -175 48 -232 54 -1181 l6
-905 27 -58 c35 -74 121 -160 195 -195 58 -27 58 -27 298 -27 l240 0 62 29
c76 35 153 113 191 193 l27 58 3 895 c3 957 -1 1109 -43 1355 -102 598 -359
889 -864 976 -144 24 -386 27 -513 4 -266 -46 -483 -162 -689 -367 -54 -54
-100 -98 -103 -98 -3 0 -7 375 -8 833 l-3 832 -32 66 c-39 80 -111 150 -191
187 -56 27 -60 27 -292 29 -204 3 -242 0 -286 -15z"/>
<path d="M13930 6109 c-278 -11 -534 -50 -820 -124 -221 -58 -308 -112 -372
-231 -142 -265 -6 -568 257 -568 52 0 100 9 191 37 270 83 521 125 794 134
146 4 202 2 268 -10 156 -30 248 -90 294 -193 23 -54 48 -178 48 -244 0 -77
-6 -80 -183 -80 -680 0 -1171 -123 -1507 -376 -375 -282 -523 -683 -428 -1159
74 -374 336 -642 724 -740 529 -135 1143 71 1444 482 27 38 40 34 40 -11 0
-51 37 -185 64 -230 34 -59 111 -130 175 -165 84 -44 153 -53 362 -49 176 3
186 5 235 30 63 33 119 94 152 166 24 52 25 61 18 171 -3 64 -10 163 -16 221
-5 58 -9 458 -10 890 0 432 -5 837 -10 900 -53 618 -306 942 -842 1079 -154
39 -315 61 -488 67 -80 3 -161 6 -180 7 -19 1 -114 -1 -210 -4z m648 -1951
c18 -18 15 -213 -4 -306 -9 -42 -25 -99 -37 -127 -84 -199 -268 -358 -484
-417 -116 -31 -325 -31 -406 1 -89 35 -150 89 -189 168 -31 64 -33 73 -33 178
0 105 2 114 33 177 76 155 263 266 522 312 123 22 133 23 371 24 156 2 218 -1
227 -10z"/>
<path d="M21295 6113 c-206 -5 -438 -39 -615 -88 -686 -192 -1120 -715 -1199
-1447 -14 -123 -14 -406 -1 -523 62 -538 311 -957 735 -1235 465 -304 1161
-388 1840 -221 178 44 231 66 292 124 84 79 133 211 119 321 -24 184 -113 301
-261 341 -80 22 -157 16 -269 -20 -138 -45 -293 -67 -471 -67 -140 -1 -172 3
-256 25 -355 94 -583 367 -646 772 -19 123 -12 423 12 530 67 300 200 487 430
601 151 74 217 87 450 88 211 1 326 -14 485 -64 147 -46 231 -45 335 6 102 50
150 123 180 273 21 103 10 191 -34 280 -30 58 -96 128 -147 154 -63 32 -319
95 -498 122 -119 19 -340 31 -481 28z"/>
<path d="M28770 6109 c-278 -11 -534 -50 -820 -124 -221 -58 -308 -112 -372
-231 -142 -265 -6 -568 257 -568 52 0 100 9 191 37 270 83 521 125 794 134
146 4 202 2 268 -10 156 -30 248 -90 294 -193 23 -54 48 -178 48 -244 0 -77
-6 -80 -183 -80 -680 0 -1171 -123 -1507 -376 -375 -282 -523 -683 -428 -1159
74 -374 336 -642 724 -740 529 -135 1143 71 1444 482 27 38 40 34 40 -11 0
-51 37 -185 64 -230 34 -59 111 -130 175 -165 84 -44 153 -53 362 -49 176 3
186 5 235 30 63 33 119 94 152 166 24 52 25 61 18 171 -3 64 -10 163 -16 221
-5 58 -9 458 -10 890 0 432 -5 837 -10 900 -53 618 -306 942 -842 1079 -154
39 -315 61 -488 67 -80 3 -161 6 -180 7 -19 1 -114 -1 -210 -4z m648 -1951
c18 -18 15 -213 -4 -306 -9 -42 -25 -99 -37 -127 -84 -199 -268 -358 -484
-417 -116 -31 -325 -31 -406 1 -89 35 -150 89 -189 168 -31 64 -33 73 -33 178
0 105 2 114 33 177 76 155 263 266 522 312 123 22 133 23 371 24 156 2 218 -1
227 -10z"/>
<path d="M33330 6108 c-332 -20 -658 -188 -887 -458 -37 -44 -71 -80 -75 -80
-5 0 -8 25 -8 55 0 210 -127 374 -321 416 -29 6 -122 9 -222 7 -168 -3 -174
-4 -237 -34 -83 -39 -155 -111 -194 -194 l-31 -65 -3 -1419 c-2 -1275 -1
-1426 14 -1475 31 -110 105 -195 214 -249 l55 -27 245 0 245 0 65 31 c72 35
138 96 178 163 51 88 52 96 52 942 0 862 1 879 60 1040 77 213 227 395 392
478 165 83 405 56 531 -59 83 -75 116 -149 153 -340 15 -74 18 -204 23 -1020
l6 -935 24 -58 c32 -81 115 -168 199 -209 l67 -33 240 0 c238 0 240 0 296 26
108 51 185 144 214 257 15 56 16 164 12 1010 -5 988 -6 1019 -52 1274 -79 438
-243 692 -542 842 -179 89 -440 131 -713 114z"/>
<path d="M11570 6065 c-231 -54 -468 -155 -647 -275 -123 -82 -292 -229 -378
-329 -38 -44 -73 -81 -77 -81 -5 0 -8 48 -8 108 -1 175 -14 282 -44 341 -53
105 -144 178 -255 207 -50 12 -102 15 -245 12 -178 -3 -182 -3 -246 -34 -83
-39 -155 -111 -194 -194 l-31 -65 -3 -1419 c-2 -1275 -1 -1426 14 -1475 31
-110 105 -195 214 -249 l55 -27 260 0 c260 0 260 0 315 26 85 41 144 99 187
187 l38 76 6 700 c6 751 6 738 60 897 105 308 356 546 702 668 115 40 186 58
340 86 70 13 152 35 182 49 78 35 168 125 208 205 32 65 32 67 32 211 0 136
-2 149 -26 201 -33 69 -88 132 -147 166 -65 39 -171 41 -312 8z"/>
<path d="M7560 6034 c-112 -30 -217 -127 -259 -240 -21 -55 -21 -58 -19 -1492
l3 -1437 27 -57 c37 -80 107 -152 187 -191 l66 -32 275 0 275 0 67 33 c76 37
151 113 189 189 l24 48 0 1460 0 1460 -28 53 c-55 105 -145 179 -252 207 -82
21 -475 20 -555 -1z"/>
<path d="M16764 4931 c-93 -23 -196 -106 -246 -198 -63 -115 -63 -315 -1 -437
33 -65 109 -137 180 -173 l58 -28 845 0 845 0 62 34 c77 41 146 113 181 189
25 53 27 66 27 197 0 138 0 141 -33 207 -38 78 -110 149 -192 187 l-55 26
-820 2 c-451 0 -834 -2 -851 -6z"/>
</g>
</svg>
