<?xml version="1.0" encoding="UTF-8" standalone="no"?>
<!-- Created with Inkscape (http://www.inkscape.org/) -->

<svg
   version="1.1"
   id="svg2"
   width="400"
   height="400"
   viewBox="0 0 400 400"
   sodipodi:docname="hxs.svg"
   inkscape:version="1.2.2 (732a01da63, 2022-12-09)"
   xmlns:inkscape="http://www.inkscape.org/namespaces/inkscape"
   xmlns:sodipodi="http://sodipodi.sourceforge.net/DTD/sodipodi-0.dtd"
   xmlns="http://www.w3.org/2000/svg"
   xmlns:svg="http://www.w3.org/2000/svg">
  <defs
     id="defs6" />
  <sodipodi:namedview
     id="namedview4"
     pagecolor="#ffffff"
     bordercolor="#000000"
     borderopacity="0.25"
     inkscape:showpageshadow="2"
     inkscape:pageopacity="0.0"
     inkscape:pagecheckerboard="0"
     inkscape:deskcolor="#d1d1d1"
     showgrid="false"
     inkscape:zoom="1.03625"
     inkscape:cx="15.922799"
     inkscape:cy="145.71773"
     inkscape:window-width="1920"
     inkscape:window-height="1009"
     inkscape:window-x="1912"
     inkscape:window-y="83"
     inkscape:window-maximized="1"
     inkscape:current-layer="g8" />
  <g
     inkscape:groupmode="layer"
     inkscape:label="Image"
     id="g8">
    <path
       style="fill:#000000"
       d="m 44.873341,125.2111 v 123.52231 l 16.887817,0.24126 -0.241254,-61.27865 62.002416,0.48251 0.48251,61.27865 h 16.88781 l -0.72376,-125.2111 H 123.76357 V 173.462 H 61.761158 l -0.482509,-48.49216 z"
       id="path170" />
    <path
       style="fill:#000000"
       d="m 162.60555,249.21592 17.85283,0.24126 26.77926,-35.94693 26.53799,36.42944 20.26538,-0.48251 -36.91194,-47.7684 36.91194,-45.83836 h -19.78287 l -25.57298,34.98191 -25.81423,-34.98191 -20.02413,0.24126 35.70567,46.80337 z"
       id="path226" />
    <path
       style="fill:#000000"
       d="m 269.4813,221.2304 0.24126,20.74789 c 0,0 21.95416,9.16767 34.01689,9.65018 12.06272,0.48251 23.16043,0.48251 28.46803,-0.96502 5.3076,-1.44753 13.75151,-4.34258 17.37032,-7.47889 3.61882,-3.13631 12.06273,-11.09771 13.269,-14.47527 1.20628,-3.37756 3.61882,-9.40893 2.89506,-15.9228 -0.72377,-6.51387 0,-9.65018 -4.34258,-16.40531 -4.34258,-6.75512 -12.62248,-10.9469 -19.01971,-13.07931 -6.39723,-2.13241 -34.03325,-5.97075 -38.98044,-7.84727 -4.94718,-1.87652 -9.12671,-2.90007 -11.94149,-7.42078 -2.81478,-4.52071 -3.41185,-6.73841 -3.49715,-9.04141 -0.0853,-2.30301 -0.25588,-7.33549 1.87652,-10.06497 2.13241,-2.72949 4.60601,-6.48253 8.78553,-8.10316 4.17952,-1.62063 8.18845,-3.07067 14.92686,-3.24126 6.73841,-0.17059 12.45327,0 17.40046,1.19415 4.94719,1.19415 10.06497,1.96182 17.05927,5.71486 6.9943,3.75303 11.08852,6.9943 11.08852,6.9943 h 2.04712 l -0.0853,-19.95935 c 0,0 -5.81218,-3.42083 -16.66864,-5.954 -10.85645,-2.53317 -20.86851,-4.46321 -29.79493,-3.73945 -8.92642,0.72377 -17.49095,2.29192 -25.2111,6.27262 -7.72014,3.9807 -10.37394,8.08203 -15.19903,13.99276 -4.82509,5.91074 -4.46321,17.2497 -3.37757,23.16044 1.08565,5.91073 5.3076,15.44029 12.66587,19.9035 7.35826,4.46321 18.57659,7.84077 24.72858,8.80579 6.15199,0.96502 17.49096,2.41254 24.12546,4.22195 6.6345,1.80941 16.16405,6.87576 15.80217,12.90712 -0.36188,6.03136 1.68878,11.09771 -4.22196,16.40531 -5.91073,5.3076 -13.38962,11.33896 -27.38238,9.89143 -13.99277,-1.44753 -21.35103,-1.44753 -31.12184,-7.11701 -9.77081,-5.66948 -15.44029,-9.77081 -15.44029,-9.77081 z"
       id="path282" />
    <path
       id="rect545"
       style="fill:#000000"
       d="m 7.7207907,258.62466 v 31.36328 H 393.72665 v -31.36328 z m 272.6835993,4.66211 c 0.56542,0 1.07273,0.0289 1.52148,0.084 0.45773,0.0552 0.875,0.11789 1.25195,0.19141 v 2.37304 h -0.13476 c -0.27823,-0.0827 -0.6411,-0.1653 -1.08985,-0.24804 -0.44875,-0.0919 -0.84254,-0.13867 -1.18359,-0.13867 -1.08598,0 -1.87747,0.24961 -2.37109,0.74609 -0.48465,0.48728 -0.72657,1.373 -0.72657,2.66016 v 0.52539 h 4.56446 v 2.17773 h -4.48243 v 13.22656 h -2.53125 v -13.22656 h -1.71093 v -2.17773 h 1.71093 v -0.51172 c 0,-1.82961 0.4435,-3.23051 1.33204,-4.20508 0.88853,-0.98376 2.17127,-1.47656 3.84961,-1.47656 z m -170.54297,0.13867 h 2.53125 v 21.45898 h -2.53125 v -1.61328 c -0.72698,0.64358 -1.48559,1.14339 -2.27539,1.50195 -0.78981,0.35857 -1.64784,0.53907 -2.57227,0.53907 -1.79501,0 -3.22024,-0.70912 -4.2793,-2.125 -1.050073,-1.41588 -1.576173,-3.37871 -1.576173,-5.88867 0,-1.30556 0.18007,-2.46775 0.53907,-3.48829 0.367973,-1.02053 0.861193,-1.89028 1.480463,-2.60742 0.61031,-0.69874 1.3192,-1.23185 2.12696,-1.59961 0.81673,-0.36776 1.66067,-0.55078 2.53125,-0.55078 0.7898,0 1.4893,0.087 2.0996,0.26172 0.61031,0.16549 1.25266,0.42659 1.92579,0.78516 z m 136.60547,0.55078 c 1.40908,0 2.70122,0.13824 3.87695,0.41406 1.17573,0.27583 2.21656,0.61695 3.12305,1.02149 v 3.22656 h -0.18946 c -0.76287,-0.66197 -1.76809,-1.20851 -3.01562,-1.64063 -1.23856,-0.44131 -2.50722,-0.66211 -3.8086,-0.66211 -1.42703,0 -2.57669,0.30336 -3.44726,0.91016 -0.86161,0.60681 -1.29297,1.38758 -1.29297,2.34375 0,0.85504 0.21568,1.52639 0.64648,2.01367 0.43081,0.48729 1.18942,0.85975 2.27539,1.11719 0.5744,0.12872 1.39212,0.28487 2.45118,0.46875 1.05905,0.18388 1.95545,0.37333 2.6914,0.56641 1.48986,0.40454 2.61133,1.01571 3.36524,1.83398 0.7539,0.81827 1.13086,1.96255 1.13086,3.43359 0,0.79989 -0.18281,1.58961 -0.55079,2.3711 -0.359,0.78149 -0.86631,1.44388 -1.52148,1.98633 -0.71801,0.58842 -1.55725,1.04792 -2.51758,1.3789 -0.95135,0.33099 -2.101,0.4961 -3.44726,0.4961 -1.44498,0 -2.74651,-0.13629 -3.9043,-0.41211 -1.1488,-0.27582 -2.31999,-0.68607 -3.51367,-1.22852 v -3.41992 h 0.18945 c 1.01418,0.86423 2.18536,1.5311 3.51367,2 1.32831,0.4689 2.57543,0.70312 3.74219,0.70312 1.65141,0 2.93611,-0.31678 3.85156,-0.95117 0.92443,-0.63439 1.38477,-1.47979 1.38477,-2.53711 0,-0.9102 -0.21843,-1.58154 -0.6582,-2.01367 -0.43081,-0.43211 -1.09194,-0.76877 -1.98047,-1.00781 -0.67313,-0.18388 -1.40356,-0.33555 -2.19336,-0.45508 -0.78083,-0.11952 -1.61068,-0.27119 -2.49024,-0.45508 -1.77705,-0.38614 -3.09738,-1.04406 -3.95898,-1.97265 -0.85264,-0.9378 -1.2793,-2.15567 -1.2793,-3.6543 0,-1.71928 0.71084,-3.12466 2.12891,-4.21875 1.41805,-1.10328 3.2175,-1.65625 5.39844,-1.65625 z m -195.113286,0.37305 h 2.664062 v 8.05468 h 10.003906 v -8.05468 h 2.666016 v 20.53515 H 64.021572 V 274.82974 H 54.017666 v 10.05468 h -2.664062 z m 122.884766,4.70312 c 2.02835,0 3.59059,0.6067 4.68555,1.82031 1.10393,1.21362 1.65625,2.93773 1.65625,5.17188 v 1.40625 h -11.08008 c 0,0.94698 0.13974,1.77448 0.41797,2.48242 0.27822,0.69875 0.65987,1.27411 1.14453,1.72461 0.4667,0.44131 1.01902,0.77153 1.65625,0.99219 0.6462,0.22065 1.3551,0.33008 2.12695,0.33008 1.02315,0 2.0499,-0.20541 3.08203,-0.61914 1.04111,-0.42293 1.78093,-0.83766 2.22071,-1.24219 h 0.13476 v 2.82812 c -0.85263,0.36776 -1.7228,0.67559 -2.61133,0.92383 -0.88852,0.24824 -1.8225,0.3711 -2.80078,0.3711 -2.49506,0 -4.44169,-0.68926 -5.84179,-2.06836 -1.40011,-1.38831 -2.09961,-3.35561 -2.09961,-5.90235 0,-2.51916 0.66857,-4.51781 2.00585,-5.99805 1.34626,-1.48023 3.11282,-2.2207 5.30274,-2.2207 z m 89.99805,0 c 2.10913,0 3.79232,0.72956 5.04882,2.19141 1.25651,1.45265 1.88477,3.43534 1.88477,5.94531 0,2.50998 -0.62826,4.4907 -1.88477,5.94336 -1.2565,1.45266 -2.93969,2.17969 -5.04882,2.17969 -2.12709,0 -3.81771,-0.72703 -5.07422,-2.17969 -1.24753,-1.45266 -1.87305,-3.43338 -1.87305,-5.94336 0,-2.50997 0.62552,-4.49266 1.87305,-5.94531 1.25651,-1.46185 2.94713,-2.19141 5.07422,-2.19141 z m 77.41015,0 c 2.02836,0 3.59059,0.6067 4.68555,1.82031 1.10393,1.21362 1.6543,2.93773 1.6543,5.17188 v 1.40625 h -11.07813 c 0,0.94698 0.13779,1.77448 0.41602,2.48242 0.27822,0.69875 0.65987,1.27411 1.14453,1.72461 0.4667,0.44131 1.01902,0.77153 1.65625,0.99219 0.6462,0.22065 1.35509,0.33008 2.12695,0.33008 1.02315,0 2.05186,-0.20541 3.08399,-0.61914 1.0411,-0.42293 1.78093,-0.83766 2.2207,-1.24219 h 0.13476 v 2.82812 c -0.85262,0.36776 -1.72279,0.67559 -2.61132,0.92383 -0.88854,0.24824 -1.82251,0.3711 -2.80078,0.3711 -2.49507,0 -4.44365,-0.68926 -5.84376,-2.06836 -1.4001,-1.38831 -2.0996,-3.35561 -2.0996,-5.90235 0,-2.51916 0.66857,-4.51781 2.00586,-5.99805 1.34625,-1.48023 3.11477,-2.2207 5.30468,-2.2207 z m -264.634763,0.0547 c 1.059055,0 1.978936,0.0915 2.759765,0.27539 0.789804,0.17469 1.472473,0.47804 2.046876,0.91016 0.565427,0.42292 0.996792,0.97141 1.292968,1.64257 0.296177,0.67117 0.44336,1.50314 0.44336,2.4961 v 10.45312 h -2.517578 v -1.64062 c -0.224377,0.1563 -0.528136,0.37514 -0.914063,0.66015 -0.376952,0.27583 -0.746467,0.49662 -1.105469,0.66211 -0.421827,0.21147 -0.905647,0.38748 -1.453125,0.52539 -0.547477,0.14711 -1.189827,0.22071 -1.925781,0.22071 -1.355232,0 -2.502933,-0.45951 -3.445312,-1.37891 -0.94238,-0.91941 -1.414063,-2.0925 -1.414063,-3.51758 0,-1.16764 0.24191,-2.10903 0.726563,-2.82617 0.493627,-0.72633 1.193129,-1.29721 2.099609,-1.71094 0.915455,-0.41373 2.015396,-0.69469 3.298828,-0.84179 1.283431,-0.14711 2.660905,-0.25653 4.132813,-0.33008 v -0.40039 c 0,-0.58842 -0.102168,-1.07479 -0.308594,-1.46094 -0.197452,-0.38615 -0.484376,-0.6895 -0.861328,-0.91016 -0.359002,-0.21146 -0.790367,-0.35418 -1.292969,-0.42773 -0.502603,-0.0736 -1.028694,-0.11133 -1.576172,-0.11133 -0.664153,0 -1.403974,0.0915 -2.220703,0.27539 -0.816729,0.17469 -1.66067,0.43326 -2.53125,0.77344 h -0.134766 v -2.63477 c 0.493628,-0.13791 1.207221,-0.28958 2.140625,-0.45507 0.933405,-0.16549 1.853286,-0.24805 2.759766,-0.24805 z m 67.798823,0 c 1.05906,0 1.97894,0.0915 2.75977,0.27539 0.7898,0.17469 1.47052,0.47804 2.04492,0.91016 0.56543,0.42292 0.9968,0.97141 1.29297,1.64257 0.29618,0.67117 0.44531,1.50314 0.44531,2.4961 v 10.45312 h -2.51757 v -1.64062 c -0.22438,0.1563 -0.53009,0.37514 -0.91602,0.66015 -0.37696,0.27583 -0.74452,0.49662 -1.10352,0.66211 -0.42182,0.21147 -0.90759,0.38748 -1.45507,0.52539 -0.54748,0.14711 -1.18788,0.22071 -1.92383,0.22071 -1.35523,0 -2.50488,-0.45951 -3.44727,-1.37891 -0.94238,-0.91941 -1.41406,-2.0925 -1.41406,-3.51758 0,-1.16764 0.24386,-2.10903 0.72852,-2.82617 0.49362,-0.72633 1.19312,-1.29721 2.09961,-1.71094 0.91545,-0.41373 2.01539,-0.69469 3.29882,-0.84179 1.28344,-0.14711 2.66091,-0.25653 4.13282,-0.33008 v -0.40039 c 0,-0.58842 -0.10413,-1.07479 -0.31055,-1.46094 -0.19745,-0.38615 -0.48438,-0.6895 -0.86133,-0.91016 -0.35901,-0.21146 -0.79037,-0.35418 -1.29297,-0.42773 -0.5026,-0.0736 -1.02674,-0.11133 -1.57422,-0.11133 -0.66415,0 -1.40592,0.0915 -2.22265,0.27539 -0.81673,0.17469 -1.65872,0.43326 -2.5293,0.77344 h -0.13477 v -2.63477 c 0.49363,-0.13791 1.20722,-0.28958 2.14063,-0.45507 0.9334,-0.16549 1.85328,-0.24805 2.75976,-0.24805 z m 167.40626,0 c 1.05905,0 1.97893,0.0915 2.75976,0.27539 0.7898,0.17469 1.47247,0.47804 2.04688,0.91016 0.56543,0.42292 0.99679,0.97141 1.29296,1.64257 0.29619,0.67117 0.44336,1.50314 0.44336,2.4961 v 10.45312 h -2.51757 v -1.64062 c -0.22438,0.1563 -0.53009,0.37514 -0.91602,0.66015 -0.37695,0.27583 -0.74451,0.49662 -1.10352,0.66211 -0.42182,0.21147 -0.90564,0.38748 -1.45312,0.52539 -0.54747,0.14711 -1.18983,0.22071 -1.92578,0.22071 -1.35523,0 -2.50294,-0.45951 -3.44531,-1.37891 -0.94239,-0.91941 -1.41407,-2.0925 -1.41407,-3.51758 0,-1.16764 0.24191,-2.10903 0.72657,-2.82617 0.49362,-0.72633 1.19312,-1.29721 2.0996,-1.71094 0.91546,-0.41373 2.0154,-0.69469 3.29883,-0.84179 1.28343,-0.14711 2.66091,-0.25653 4.13282,-0.33008 v -0.40039 c 0,-0.58842 -0.10217,-1.07479 -0.3086,-1.46094 -0.19745,-0.38615 -0.48633,-0.6895 -0.86328,-0.91016 -0.359,-0.21146 -0.78841,-0.35418 -1.29101,-0.42773 -0.50261,-0.0736 -1.0287,-0.11133 -1.57618,-0.11133 -0.66415,0 -1.40397,0.0915 -2.2207,0.27539 -0.81674,0.17469 -1.66067,0.43326 -2.53125,0.77344 h -0.13477 v -2.63477 c 0.49363,-0.13791 1.20722,-0.28958 2.14063,-0.45507 0.9334,-0.16549 1.85328,-0.24805 2.75977,-0.24805 z m -223.789068,0.37305 h 2.53125 v 2.27539 c 1.005206,-0.82747 1.889465,-1.41178 2.652344,-1.75196 0.771854,-0.34937 1.55669,-0.52343 2.355469,-0.52343 0.439777,0 0.759582,0.0134 0.957032,0.041 0.19745,0.0184 0.49377,0.0587 0.88867,0.12305 v 2.66211 h -0.13477 c -0.37695,-0.0919 -0.74451,-0.15659 -1.10351,-0.19336 -0.350027,-0.0459 -0.767301,-0.0684 -1.251953,-0.0684 -0.78083,0 -1.53474,0.17854 -2.261719,0.53711 -0.726979,0.34937 -1.428434,0.8044 -2.101563,1.36523 v 10.9375 h -2.53125 z m 27.613278,0 h 2.63868 l 2.75976,11.92773 3.75586,-11.92773 h 2.08594 l 3.85156,11.92773 2.61133,-11.92773 h 2.54492 l -3.91797,15.40429 h -2.34375 l -3.86328,-11.875 -3.83594,11.875 h -2.33008 z m 40.18555,0 h 2.53125 v 2.27539 c 1.00521,-0.82747 1.88947,-1.41178 2.65234,-1.75196 0.77186,-0.34937 1.55669,-0.52343 2.35547,-0.52343 0.43978,0 0.75763,0.0134 0.95508,0.041 0.19745,0.0184 0.49377,0.0587 0.88867,0.12305 v 2.66211 h -0.13476 c -0.37695,-0.0919 -0.74451,-0.15659 -1.10352,-0.19336 -0.35002,-0.0459 -0.7673,-0.0684 -1.25195,-0.0684 -0.78083,0 -1.53474,0.17854 -2.26172,0.53711 -0.72698,0.34937 -1.42648,0.8044 -2.09961,1.36523 v 10.9375 h -2.53125 z m 45.94727,0 h 3.1914 l 4.24024,5.81836 4.2539,-5.81836 h 2.96289 l -5.91015,7.58398 5.91015,7.82031 h -3.1914 l -4.26758,-5.91601 -4.29492,5.91601 h -2.94727 l 5.86914,-7.68164 z m 81.27343,0 h 2.63868 l 2.75976,11.92773 3.75586,-11.92773 h 2.08789 l 3.84961,11.92773 2.61133,-11.92773 h 2.54492 l -3.91797,15.40429 h -2.3418 l -3.86328,-11.875 -3.83789,11.875 h -2.32812 z m 40.18555,0 h 2.53125 v 2.27539 c 1.0052,-0.82747 1.88946,-1.41178 2.65234,-1.75196 0.77186,-0.34937 1.55669,-0.52343 2.35547,-0.52343 0.43978,0 0.75958,0.0134 0.95703,0.041 0.19746,0.0184 0.49377,0.0587 0.88868,0.12305 v 2.66211 h -0.13477 c -0.37695,-0.0919 -0.74647,-0.15659 -1.10547,-0.19336 -0.35003,-0.0459 -0.7673,-0.0684 -1.25195,-0.0684 -0.78083,0 -1.53474,0.17854 -2.26172,0.53711 -0.72698,0.34937 -1.42649,0.8044 -2.09961,1.36523 v 10.9375 h -2.53125 z m -149.52734,1.70898 c -1.35523,0 -2.43834,0.41025 -3.2461,1.22852 -0.79878,0.81827 -1.25167,1.83326 -1.35937,3.04687 h 8.61719 c -0.009,-1.36072 -0.3456,-2.41349 -1.00977,-3.1582 -0.65518,-0.74472 -1.6557,-1.11719 -3.00195,-1.11719 z m 167.40625,0 c -1.35524,0 -2.43639,0.41025 -3.24414,1.22852 -0.79878,0.81827 -1.25168,1.83326 -1.35938,3.04687 h 8.61524 c -0.009,-1.36072 -0.3456,-2.41349 -1.00977,-3.1582 -0.65518,-0.74472 -1.6557,-1.11719 -3.00195,-1.11719 z m -77.27539,0.0977 c -1.37318,0 -2.44025,0.48637 -3.20313,1.46093 -0.7539,0.96538 -1.13086,2.44631 -1.13086,4.44141 0,1.93075 0.38165,3.39629 1.14453,4.39844 0.76288,0.99295 1.82525,1.49023 3.18946,1.49023 1.34625,0 2.40118,-0.4928 3.16406,-1.47656 0.77185,-0.99296 1.1582,-2.46297 1.1582,-4.41211 0,-1.9951 -0.38165,-3.47603 -1.14453,-4.44141 -0.76288,-0.97456 -1.8225,-1.46093 -3.17773,-1.46093 z m -157.96875,0.13672 c -1.41806,0 -2.5227,0.50623 -3.3125,1.51757 -0.78981,1.01135 -1.18555,2.44554 -1.18555,4.30274 0,1.82961 0.30571,3.22351 0.91601,4.17969 0.6103,0.94699 1.58929,1.41992 2.93555,1.41992 0.718,0 1.44373,-0.16063 2.17969,-0.48242 0.73595,-0.33099 1.42332,-0.75467 2.06055,-1.26954 v -8.83984 c -0.68211,-0.3126 -1.29353,-0.52891 -1.83203,-0.64844 -0.53851,-0.11952 -1.1245,-0.17968 -1.76172,-0.17968 z m -25.230472,5.3789 c -0.771855,0.046 -1.682342,0.11507 -2.732422,0.20703 -1.041105,0.0919 -1.866259,0.22571 -2.476563,0.40039 -0.726978,0.21146 -1.314919,0.54168 -1.763672,0.99219 -0.448752,0.44131 -0.673828,1.0525 -0.673828,1.83399 0,0.88262 0.260698,1.54949 0.78125,2 0.520553,0.44131 1.314782,0.6621 2.382813,0.6621 0.888529,0 1.701546,-0.17406 2.4375,-0.52343 0.735953,-0.35857 1.416668,-0.78672 2.044922,-1.28321 z m 67.798832,0 c -0.77186,0.046 -1.6843,0.11507 -2.73438,0.20703 -1.04111,0.0919 -1.86626,0.22571 -2.47656,0.40039 -0.72698,0.21146 -1.31492,0.54168 -1.76367,0.99219 -0.44876,0.44131 -0.67188,1.0525 -0.67188,1.83399 0,0.88262 0.25874,1.54949 0.7793,2 0.52055,0.44131 1.31478,0.6621 2.38281,0.6621 0.88853,0 1.70155,-0.17406 2.4375,-0.52343 0.73596,-0.35857 1.41863,-0.78672 2.04688,-1.28321 z m 167.40625,0 c -0.77186,0.046 -1.68235,0.11507 -2.73243,0.20703 -1.0411,0.0919 -1.86625,0.22571 -2.47656,0.40039 -0.72698,0.21146 -1.31492,0.54168 -1.76367,0.99219 -0.44876,0.44131 -0.67383,1.0525 -0.67383,1.83399 0,0.88262 0.2607,1.54949 0.78125,2 0.52056,0.44131 1.31479,0.6621 2.38281,0.6621 0.88854,0 1.6996,-0.17406 2.43555,-0.52343 0.73596,-0.35857 1.41862,-0.78672 2.04688,-1.28321 z" />
    <g
       aria-label="Hardware  x  Sofware"
       transform="scale(0.98801916,1.0121261)"
       id="text392"
       style="font-size:27.9057px;fill:#ffffff;stroke-width:2.32547" />
  </g>
</svg>
